<?xml version="1.0" encoding="UTF-8"?>
<svg width="504pt" height="386.74pt" version="1.1" viewBox="0 0 504 386.74" xmlns="http://www.w3.org/2000/svg">
 <g transform="translate(-98.002,-86.633)">
  <path d="m566.83 86.633h-433.66c-9.4062 0-18.199 3.6406-24.863 10.305-6.6641 6.6055-10.305 15.453-10.305 24.805v316.46c0 19.375 15.793 35.168 35.168 35.168h433.66c19.375 0 35.168-15.793 35.168-35.168v-316.46c0-19.375-15.793-35.109-35.168-35.109zm-24.863 35.109-191.97 192.03-191.97-192.03zm-408.8 24.867 133.39 133.39-133.39 133.39zm24.863 291.65 133.39-133.39 33.77 33.77c6.6641 6.6641 15.457 10.305 24.863 10.305s18.199-3.6406 24.863-10.305l33.77-33.77 133.39 133.39zm275.41-158.26 133.39-133.39v266.79z" fill="#fff"/>
 </g>
</svg>
